# xmcd
#
# Track frame offsets: 
#        150
#        5492
#        26169
#        52770
#        70490
#        102424
#        120343
#        136004
#
# Disc length: 1953 seconds
#
# Revision: 0
# Processed by: cddbd v1.5.2PL0 Copyright (c) Steve Scherf et al.
# Submitted via: ExactAudioCopyFreeDBPlugin 1.0
#
DISCID=61079f08
DTITLE=Yansn - Gute Vibez
DYEAR=2016
DGENRE=Hip-Hop
TTITLE0=Gute Vibez Intro
TTITLE1=Die Reise deines Lebens
TTITLE2=Rosa Brille, graue Wolken
TTITLE3=Menschsein
TTITLE4=M.S.T.
TTITLE5=Good Vibez
TTITLE6=Gender rulez
TTITLE7=M.S.T. Acoustic
EXTD=
EXTT0=
EXTT1=
EXTT2=
EXTT3=
EXTT4=
EXTT5=
EXTT6=
EXTT7=
PLAYORDER=
